<svg width="131" height="121" viewBox="0 0 131 121" fill="none" xmlns="http://www.w3.org/2000/svg">
<path d="M65.451 31C69.9523 31.0026 87.5 52.5014 87.951 75.5C87.9654 76.2338 87.958 76.964 87.9354 77.6904C89.1834 77.7069 90.4431 77.7661 91.7107 77.874C112.241 79.6226 130.633 92.596 130.425 95.5762C130.311 97.1877 123.999 100.988 115.26 103.931L108.321 95.0283L108.617 105.854C102.713 107.29 96.2415 108.137 90.0555 107.7C86.0741 107.419 82.2236 106.712 78.576 105.72C74.2549 112.543 69.3665 117.754 66.0691 120.499C65.7102 120.798 65.197 120.795 64.8416 120.492C61.2639 117.439 56.5784 112.206 52.4607 105.551C48.6333 106.632 44.575 107.404 40.3709 107.7C21.6056 109.024 0.212087 98.5557 0.00176154 95.5762C-0.207082 92.5961 18.1849 79.6225 38.7156 77.874C40.166 77.7505 41.6059 77.6902 43.0301 77.6855C42.9785 76.7954 42.951 75.9 42.951 75C42.951 54 60.951 31 65.451 31Z" fill="white"/>
<path d="M33.2161 9.7881C36.5834 8.16121 55.2553 16.7826 66.7122 30.5947C78.2197 17.3679 96.0758 9.20103 99.3616 10.7881C103.413 12.7457 109.861 39.7388 100.262 60.6445C94.6119 72.9491 83.6417 81.3648 74.1213 86.3867C73.655 87.7666 73.1757 89.014 72.6965 90.1035C72.5084 90.531 72.0482 90.7563 71.595 90.6436C70.4403 90.356 69.0927 89.9503 67.6018 89.4238C65.0515 90.4578 62.7839 91.1952 60.9836 91.6436C60.5303 91.7565 60.0692 91.5312 59.8811 91.1035C59.1374 89.4125 58.3888 87.3433 57.7014 84.9834C48.362 79.9193 37.8169 71.625 32.3157 59.6445C22.7165 38.7393 29.1642 11.7468 33.2161 9.7881Z" fill="white"/>
<path d="M65.3404 4.50826C65.6958 4.205 66.2088 4.20166 66.568 4.50044C72.8803 9.75431 85.021 24.0502 87.8541 41.3862C102.08 30.7355 121.054 29.0202 129.32 29.7085C129.786 29.7472 130.149 30.1092 130.19 30.5747C131.117 41.1873 128.252 63.7585 113.892 78.3559C103.332 89.0903 85.4525 94.0662 74.9977 94.8598C72.6042 95.2948 69.1199 95.5004 65.9498 95.5004C62.8093 95.5004 59.5219 95.2991 57.2701 94.8725C46.8395 94.1195 28.8261 89.1476 18.2096 78.3559C3.84921 63.7585 0.983475 41.1874 1.91075 30.5747C1.95142 30.1092 2.31529 29.7473 2.78087 29.7085C11.0455 29.0202 30.0141 30.7352 44.2399 41.3813C47.2793 24.5721 58.3963 10.4339 65.3404 4.50826Z" fill="white"/>
</svg>
